PathFileType	4	(X/Y/Z)	/Users/itak/Documents/Research/Walk-IL/dataset/trc/00267_00010.trc
DataRate	CameraRate	NumFrames	NumMarkers	Units	OrigDataRate	OrigDataStartFrame	OrigNumFrames
100.000000	100.000000	4	54	mm	100.000000	155	415
Frame#	Time	RPSI			LPSI			L3			STRN			T10			C7			CLAV			RBAK			LBAK			LSHO			LUPA			LAEL			LAOL			LWTS			LWPS			LFRA			LIFD			LHPS			LHTS			RSHO			RUPA			RAEL			RAOL			RWTS			RWPS			RFRA			RIFD			RHTS			RHPS			RBHD			LFHD			RFHD			LBHD			LHIP			RHIP			RASI			LKNE			LTHI			LANK			LTIP			LTOE			LMT1			LMT5			LHEE			RKNE			RTHI			RANK			RTIP			RTOE			RMT1			RMT5			RHEE			LASI			*53			
		X1	Y1	Z1	X2	Y2	Z2	X3	Y3	Z3	X4	Y4	Z4	X5	Y5	Z5	X6	Y6	Z6	X7	Y7	Z7	X8	Y8	Z8	X9	Y9	Z9	X10	Y10	Z10	X11	Y11	Z11	X12	Y12	Z12	X13	Y13	Z13	X14	Y14	Z14	X15	Y15	Z15	X16	Y16	Z16	X17	Y17	Z17	X18	Y18	Z18	X19	Y19	Z19	X20	Y20	Z20	X21	Y21	Z21	X22	Y22	Z22	X23	Y23	Z23	X24	Y24	Z24	X25	Y25	Z25	X26	Y26	Z26	X27	Y27	Z27	X28	Y28	Z28	X29	Y29	Z29	X30	Y30	Z30	X31	Y31	Z31	X32	Y32	Z32	X33	Y33	Z33	X34	Y34	Z34	X35	Y35	Z35	X36	Y36	Z36	X37	Y37	Z37	X38	Y38	Z38	X39	Y39	Z39	X40	Y40	Z40	X41	Y41	Z41	X42	Y42	Z42	X43	Y43	Z43	X44	Y44	Z44	X45	Y45	Z45	X46	Y46	Z46	X47	Y47	Z47	X48	Y48	Z48	X49	Y49	Z49	X50	Y50	Z50	X51	Y51	Z51	X52	Y52	Z52	X53	Y53	Z53	X54	Y54	Z54	

156	1.55	-153.3239898681641	963.6673583984375	1.345775842666626	-124.7510757446289	946.277099609375	-169.6578826904297	-122.0274887084961	1043.069213867188	-75.95827484130859	139.1977844238281	1202.1015625	-66.80608367919922	-129.3181457519531	1162.110229492188	-66.39159393310547	-65.32668304443359	1397.525756835938	-88.56330871582031	83.38278198242188	1304.241455078125	-78.96504211425781	-126.1526031494141	1272.681030273438	-2.328017473220825	-89.65399169921875	1355.5556640625	-187.8668365478516	-2.373972415924072	1355.564331054688	-245.7671203613281	-60.99095916748047	1244.568115234375	-307.7619323730469	-107.6759033203125	1050.8388671875	-313.6093139648438	-156.0181427001953	1046.095947265625	-241.3468780517578	-19.58954811096191	839.5513916015625	-299.3579711914062	-71.24829864501953	825.8518676757812	-348.0477600097656	-103.1619110107422	950.4036865234375	-328.501220703125	-12.50650596618652	651.2030639648438	-305.2018737792969	-63.75690460205078	737.0968017578125	-348.2488708496094	-1.571801781654358	741.3447875976562	-328.6967163085938	5.620639801025391	1383.43798828125	68.64369964599609	5.294532775878906	1330.004760742188	141.4931030273438	26.11262893676758	1071.664428710938	216.0407867431641	-26.49555397033691	1045.661987304688	137.7210540771484	189.2149047851562	902.4154663085938	159.0253295898438	160.1443481445312	884.9517211914062	236.8985443115234	67.88787841796875	1014.931396484375	228.6779327392578	276.0458374023438	740.1705932617188	164.0337524414062	267.5148620605469	813.6083374023438	176.1775360107422	229.3065490722656	794.9905395507812	232.4467468261719	-1.959262251853943	1564.788940429688	-36.46199417114258	163.6909484863281	1556.517822265625	-169.5303192138672	169.2918090820312	1564.514770507812	-76.62819671630859	-12.24105548858643	1541.790405273438	-181.7956085205078	-41.67140579223633	903.3057861328125	-242.5647735595703	-69.14230346679688	919.8460693359375	122.6876373291016	61.81991195678711	924.30419921875	75.52384185791016	196.288818359375	493.1456298828125	-199.6353607177734	129.3309631347656	616.3081665039062	-229.2801818847656	273.5926818847656	42.56896209716797	-153.8623504638672	226.8787994384766	263.0008850097656	-191.7961730957031	481.7934265136719	63.4350471496582	-108.3155822753906	413.8733215332031	58.83550262451172	-65.14435577392578	397.8907775878906	44.22514724731445	-174.4490051269531	230.8115692138672	46.87219619750977	-92.60802459716797	-66.46430969238281	446.6770324707031	80.82148742675781	-18.94890403747559	706.2599487304688	124.3568344116211	-313.1283569335938	66.30553436279297	30.53746795654297	-102.8880844116211	324.0523681640625	59.88899612426758	-126.9563903808594	45.61380386352539	-40.54886245727539	-184.7108612060547	51.58120346069336	-75.21006774902344	-209.9414367675781	39.43659210205078	41.90865325927734	-367.9652709960938	86.40071105957031	-14.92247009277344	88.75198364257812	923.4208374023438	-175.2671966552734	nan	nan	nan	
157	1.56	-163.1820220947266	963.7486572265625	3.10415244102478	-135.4064788818359	946.549072265625	-168.0687255859375	-132.4324493408203	1043.152709960938	-75.09445953369141	129.0595550537109	1202.970336914062	-65.29403686523438	-139.7106323242188	1162.57421875	-66.39324951171875	-74.98011016845703	1398.322509765625	-88.03290557861328	73.32344818115234	1305.0419921875	-77.526123046875	-136.8564758300781	1273.200561523438	-2.572259187698364	-98.591796875	1356.664428710938	-187.6742248535156	-10.88254547119141	1356.638305664062	-244.9047241210938	-69.08181762695312	1245.952392578125	-307.720947265625	-116.0811462402344	1052.06787109375	-313.9982604980469	-165.9612426757812	1047.883056640625	-242.6334228515625	-28.09999847412109	840.9501953125	-296.2563781738281	-78.04763031005859	827.102294921875	-346.5647888183594	-110.9327163696289	951.8327026367188	-328.2464294433594	-22.0031852722168	651.828857421875	-299.3969116210938	-70.78147888183594	738.0530395507812	-345.8192443847656	-9.268787384033203	742.3526000976562	-323.9938659667969	-5.665478229522705	1383.617431640625	69.80652618408203	-6.845027923583984	1329.945678710938	142.4241485595703	13.63826179504395	1071.518676757812	216.7294464111328	-38.20523834228516	1045.412719726562	137.8500213623047	180.0267486572266	905.9725952148438	160.0960235595703	150.6012268066406	887.1649780273438	237.5421295166016	55.7967529296875	1015.579284667969	229.5481719970703	270.6640930175781	745.7894287109375	164.5062561035156	260.2384338378906	818.8649291992188	177.2718048095703	221.8356170654297	798.80859375	232.9523773193359	-10.66364669799805	1565.553344726562	-35.1138916015625	155.4703826904297	1556.229614257812	-167.5303955078125	160.7873382568359	1564.112670898438	-74.60174560546875	-20.49854278564453	1542.760864257812	-180.4425811767578	-51.95861434936523	903.4686889648438	-242.1788482666016	-78.25233459472656	920.4456176757812	124.1373519897461	52.37955474853516	925.5112915039062	76.12385559082031	189.11962890625	495.4882202148438	-200.0067901611328	120.7330627441406	618.1776123046875	-229.0697784423828	266.0733642578125	43.71063613891602	-154.3558349609375	219.4219055175781	265.1255493164062	-192.4030914306641	473.8374633789062	68.92282867431641	-110.3804779052734	406.6469116210938	62.86261749267578	-66.37440490722656	389.896484375	46.17717361450195	-175.4564666748047	223.6049346923828	47.96335983276367	-92.95463562011719	-72.25925445556641	447.1206665039062	80.27632904052734	-26.39144325256348	707.1775512695312	124.8291778564453	-314.0284118652344	64.20597839355469	30.31867218017578	-107.081169128418	324.0592041015625	58.87482833862305	-127.3580780029297	45.72098541259766	-40.87472152709961	-185.4098205566406	50.81233215332031	-75.65018463134766	-210.4608459472656	39.21132278442383	41.45358657836914	-369.3725891113281	83.07276916503906	-15.20449733734131	78.30221557617188	924.4689331054688	-174.7373199462891	nan	nan	nan	
158	1.57	-172.6480712890625	963.96240234375	5.023600578308105	-145.88330078125	947.068359375	-166.396240234375	-142.4396820068359	1043.299438476562	-74.08353424072266	119.1229782104492	1204.029663085938	-63.9065055847168	-149.8588104248047	1163.028930664062	-66.33621215820312	-84.54253387451172	1399.214233398438	-87.59879302978516	63.44391632080078	1306.062866210938	-76.22301483154297	-147.376953125	1273.756591796875	-2.882415533065796	-107.4344177246094	1357.799072265625	-187.5615386962891	-19.32845878601074	1357.758422851562	-244.1403656005859	-77.07290649414062	1247.32275390625	-307.7069702148438	-124.3843231201172	1053.299926757812	-314.4773559570312	-175.6144866943359	1049.616821289062	-243.9421234130859	-36.63440704345703	842.3099975585938	-293.4102478027344	-84.92506408691406	828.3264770507812	-345.1788635253906	-118.6498641967773	953.247802734375	-328.0790100097656	-32.03974533081055	652.069580078125	-293.5489807128906	-77.93051910400391	738.9862670898438	-343.4809265136719	-17.08539199829102	743.3563842773438	-319.6196899414062	-16.88639450073242	1383.974487304688	70.87184906005859	-18.97119140625	1330.072875976562	143.259765625	0.919348418712616	1071.530151367188	217.2997589111328	-50.08672714233398	1045.38525390625	137.8649597167969	170.2659149169922	909.4478149414062	161.1720275878906	140.4613342285156	889.379638671875	238.180419921875	43.37531280517578	1016.357666015625	230.3255462646484	264.3878173828125	751.2579345703125	165.1412048339844	252.2231292724609	823.963623046875	178.4694519042969	213.6461944580078	802.5703125	233.5699157714844	-19.39992523193359	1566.474609375	-33.82297515869141	147.2976684570312	1556.204833984375	-165.4917297363281	152.2684783935547	1563.915893554688	-72.52728271484375	-28.69103813171387	1543.993530273438	-179.1610717773438	-62.07548904418945	903.8134765625	-241.8488922119141	-86.88350677490234	921.0031127929688	125.6260452270508	43.35800933837891	926.6494140625	76.62129211425781	182.5662078857422	498.2383422851562	-200.4453582763672	112.6509857177734	620.3945922851562	-228.9831695556641	256.7309265136719	45.10021209716797	-155.0403747558594	211.4393768310547	267.4911499023438	-192.9836578369141	463.8736572265625	73.97309112548828	-111.4905395507812	397.1888427734375	66.1875	-67.03976440429688	380.1812133789062	48.65235137939453	-176.0326690673828	214.2639617919922	48.89629745483398	-93.68679809570312	-77.70838165283203	447.6406555175781	79.58553314208984	-33.37368392944336	708.1416015625	125.1742858886719	-314.8282165527344	62.32146072387695	30.04470825195312	-111.0275802612305	324.1934509277344	57.75928115844727	-127.7121810913086	45.79022216796875	-41.18069076538086	-185.9730224609375	50.09609222412109	-76.06093597412109	-210.9558410644531	39.01343536376953	40.98515319824219	-370.6035766601562	80.04481506347656	-15.55967044830322	68.03524780273438	925.63525390625	-174.3236389160156	nan	nan	nan	
159	1.58	-181.7428283691406	964.3502807617188	7.024131774902344	-156.1688537597656	947.80078125	-164.7013854980469	-152.0382690429688	1043.541748046875	-72.96255493164062	109.4063339233398	1205.263061523438	-62.65252685546875	-159.7709808349609	1163.526489257812	-66.21621704101562	-93.99297332763672	1400.21728515625	-87.24234008789062	53.76968002319336	1307.288696289062	-75.05213165283203	-157.6817779541016	1274.390014648438	-3.225057363510132	-116.1867141723633	1358.981201171875	-187.5007171630859	-27.71827697753906	1358.932373046875	-243.4546813964844	-84.96133422851562	1248.674682617188	-307.6947937011719	-132.5371398925781	1054.518432617188	-315.0188293457031	-184.9383087158203	1051.27490234375	-245.2426147460938	-45.16209411621094	843.6024169921875	-290.8439025878906	-91.9053955078125	829.5035400390625	-343.9009704589844	-126.2954788208008	954.6201782226562	-327.9845886230469	-42.63786315917969	651.86279296875	-287.7157897949219	-85.22214508056641	739.8974609375	-341.2619934082031	-25.01922225952148	744.3417358398438	-315.62548828125	-27.96635627746582	1384.527587890625	71.84532165527344	-31.00888824462891	1330.41015625	144.0082397460938	-12.03261661529541	1071.7216796875	217.7583618164062	-62.0464973449707	1045.612060546875	137.7878570556641	159.9490051269531	912.7991943359375	162.2509307861328	129.72412109375	891.5646362304688	238.8078155517578	30.6485652923584	1017.27294921875	231.002685546875	257.1860046386719	756.496337890625	165.9339294433594	243.4660186767578	828.8411254882812	179.7708435058594	204.7211303710938	806.2186279296875	234.2983856201172	-28.15948295593262	1567.54833984375	-32.58588790893555	139.1596527099609	1556.474853515625	-163.4351654052734	143.7298736572266	1563.961181640625	-70.42649841308594	-36.83571243286133	1545.46875	-177.9518585205078	-72.03092193603516	904.36767578125	-241.5469970703125	-95.09435272216797	921.59228515625	127.0959701538086	34.71965026855469	927.7579345703125	77.00492858886719	176.5791168212891	501.3657836914062	-200.9024658203125	105.1004791259766	622.9361572265625	-228.9779510498047	245.533447265625	46.72316360473633	-155.8845367431641	202.8952178955078	270.09814453125	-193.5319061279297	451.9449462890625	78.38329315185547	-111.7012252807617	385.5169372558594	68.78710174560547	-67.18244171142578	368.7343444824219	51.47873687744141	-176.2370910644531	202.7807922363281	49.79322052001953	-94.75278472900391	-82.89618682861328	448.2903137207031	78.81110382080078	-39.98757934570312	709.16796875	125.3994674682617	-315.5447998046875	60.6525764465332	29.70910453796387	-114.8076782226562	324.5234680175781	56.65421295166016	-128.0074310302734	45.82499694824219	-41.46068954467773	-186.4087982177734	49.44083786010742	-76.44432067871094	-211.4177093505859	38.85053634643555	40.52371597290039	-371.677001953125	77.32406616210938	-15.99961185455322	57.95094680786133	926.9172973632812	-174.0276031494141	nan	nan	nan	
